<?xml version="1.0" encoding="UTF-8" standalone="no"?>
<svg width="11px" height="9px" viewBox="0 0 11 9" version="1.1" xmlns="http://www.w3.org/2000/svg" xmlns:xlink="http://www.w3.org/1999/xlink" xmlns:sketch="http://www.bohemiancoding.com/sketch/ns">
    <!-- Generator: Sketch 3.4.2 (15855) - http://www.bohemiancoding.com/sketch -->
    <title>Fill 329</title>
    <desc>Created with Sketch.</desc>
    <defs></defs>
    <g id="Page-1" stroke="none" stroke-width="1" fill="none" fill-rule="evenodd" sketch:type="MSPage">
        <g id="icons" sketch:type="MSLayerGroup" transform="translate(-339.000000, -1656.000000)" fill="#E15947">
            <g id="Page-1" sketch:type="MSShapeGroup">
                <path d="M343.598454,1657.03142 C343.660162,1657.08095 343.732189,1657.14493 343.814535,1657.22335 C343.896881,1657.30178 343.975719,1657.39878 344.051048,1657.51229 C344.126584,1657.6258 344.1918,1657.75994 344.246491,1657.9106 C344.301389,1658.06332 344.328838,1658.23462 344.328838,1658.42862 C344.328838,1658.62055 344.304897,1658.78979 344.25681,1658.93425 C344.20893,1659.08078 344.143714,1659.20874 344.061367,1659.32225 C343.979021,1659.43782 343.886562,1659.54101 343.783578,1659.63389 C343.6808,1659.72676 343.574514,1659.8155 343.464719,1659.89805 C343.395994,1659.96616 343.330984,1660.03839 343.269276,1660.11475 C343.207568,1660.19112 343.176611,1660.28605 343.176611,1660.40369 C343.176611,1660.52133 343.207568,1660.61213 343.269276,1660.67818 C343.330984,1660.74422 343.389183,1660.79994 343.444081,1660.84947 L343.814535,1661.13841 C343.92433,1661.23541 344.032268,1661.3324 344.138554,1661.42734 C344.24484,1661.52434 344.337506,1661.62753 344.416343,1661.73898 C344.495181,1661.84836 344.558746,1661.97219 344.606627,1662.11046 C344.654714,1662.24874 344.678654,1662.40765 344.678654,1662.5872 C344.678654,1662.82867 344.620454,1663.06601 344.503849,1663.30128 C344.387243,1663.53449 344.215741,1663.74294 343.98934,1663.92662 C343.76294,1664.10823 343.480198,1664.25683 343.1407,1664.37034 C342.800997,1664.48591 342.411762,1664.54163 341.972789,1664.54163 C341.60254,1664.54163 341.278522,1664.50036 341.000733,1664.4178 C340.722943,1664.33525 340.491383,1664.22381 340.306259,1664.08759 C340.120929,1663.94932 339.983892,1663.79247 339.894735,1663.61498 C339.805578,1663.43956 339.761,1663.25588 339.761,1663.06188 C339.761,1662.87614 339.817548,1662.66356 339.930645,1662.42623 C340.043949,1662.18889 340.251362,1661.98044 340.553091,1661.80089 C340.710973,1661.70389 340.880619,1661.62547 341.062441,1661.56768 C341.244056,1661.50989 341.424227,1661.46242 341.60254,1661.42734 C341.780854,1661.39432 341.948848,1661.36955 342.10673,1661.35511 C342.264405,1661.34272 342.401649,1661.3324 342.518254,1661.32415 C342.442719,1661.22921 342.372343,1661.12602 342.307333,1661.0187 C342.242116,1660.91345 342.209508,1660.7793 342.209508,1660.62039 C342.209508,1660.53164 342.219827,1660.45735 342.240465,1660.39956 C342.260897,1660.33971 342.285043,1660.27986 342.312492,1660.21795 C342.257595,1660.22414 342.202697,1660.23033 342.1478,1660.23239 C342.092902,1660.23652 342.038005,1660.23858 341.983108,1660.23858 C341.708827,1660.23858 341.465297,1660.19112 341.252724,1660.09824 C341.040151,1660.00537 340.861838,1659.88361 340.717784,1659.73089 C340.57373,1659.58023 340.463935,1659.40687 340.388606,1659.20874 C340.31307,1659.01268 340.275302,1658.81455 340.275302,1658.61436 C340.275302,1658.3729 340.3302,1658.12937 340.439995,1657.88584 C340.549789,1657.64024 340.714275,1657.42148 340.933865,1657.22748 C341.228784,1656.98601 341.538975,1656.83123 341.864851,1656.76312 C342.190727,1656.69295 342.494108,1656.65993 342.775405,1656.65993 L344.894735,1656.65993 L344.236379,1657.03142 L343.598454,1657.03142 L343.598454,1657.03142 Z M342.466659,1659.94965 C342.597092,1659.94965 342.725668,1659.92076 342.852592,1659.8671 C342.979517,1659.81137 343.083945,1659.7412 343.166292,1659.65865 C343.282897,1659.54308 343.354924,1659.41099 343.382373,1659.26653 C343.409822,1659.12206 343.423443,1659.0003 343.423443,1658.9033 C343.423443,1658.71755 343.395994,1658.5153 343.341303,1658.29447 C343.286406,1658.07364 343.204059,1657.86726 343.094265,1657.67326 C342.98447,1657.47927 342.849084,1657.32035 342.6879,1657.1924 C342.526716,1657.06444 342.339941,1657.00046 342.127162,1657.00046 C341.990125,1657.00046 341.856389,1657.03142 341.725956,1657.09333 C341.59573,1657.15525 341.489443,1657.2378 341.407097,1657.34305 C341.317941,1657.45244 341.257884,1657.5742 341.226926,1657.70422 C341.196176,1657.83424 341.180697,1657.97045 341.180697,1658.10666 C341.180697,1658.28002 341.206495,1658.47402 341.257884,1658.6866 C341.309273,1658.90123 341.38811,1659.10142 341.494397,1659.28717 C341.600889,1659.47291 341.734624,1659.62976 341.895808,1659.75771 C342.056992,1659.88567 342.247276,1659.94965 342.466659,1659.94965 L342.466659,1659.94965 Z M343.98934,1662.98965 C343.98934,1662.85963 343.967051,1662.73992 343.922473,1662.63261 C343.877894,1662.52735 343.811027,1662.4221 343.72187,1662.31684 C343.632713,1662.21365 343.516108,1662.1084 343.372054,1661.99695 C343.228,1661.88757 343.060005,1661.76168 342.867864,1661.62547 C342.826794,1661.61721 342.790884,1661.61515 342.759927,1661.61515 L342.631351,1661.61515 C342.610713,1661.61515 342.562833,1661.61515 342.487297,1661.61927 C342.411762,1661.6234 342.322605,1661.62959 342.219827,1661.63991 C342.116843,1661.65023 342.007254,1661.66881 341.890649,1661.69151 C341.774043,1661.71627 341.66074,1661.74517 341.551151,1661.78025 C341.496254,1661.80089 341.419067,1661.83391 341.319592,1661.87725 C341.220116,1661.92265 341.122498,1661.98663 341.026324,1662.06919 C340.930357,1662.15174 340.846359,1662.25493 340.774332,1662.38082 C340.702305,1662.50465 340.666188,1662.65944 340.666188,1662.84518 C340.666188,1663.21873 340.82923,1663.52211 341.154899,1663.75532 C341.480775,1663.9906 341.9214,1664.10823 342.476978,1664.10823 C342.970849,1664.10823 343.346463,1664.00298 343.603614,1663.79247 C343.860765,1663.58196 343.98934,1663.31366 343.98934,1662.98965 L343.98934,1662.98965 Z M349.761,1658.635 L347.816682,1658.635 L347.816682,1660.59975 L347.199395,1660.59975 L347.199395,1658.635 L345.244551,1658.635 L345.244551,1658.01379 L347.199395,1658.01379 L347.199395,1656.08 L347.816682,1656.08 L347.816682,1658.01379 L349.761,1658.01379 L349.761,1658.635 L349.761,1658.635 Z" id="Fill-329"></path>
            </g>
        </g>
    </g>
</svg>