<?xml version="1.0" encoding="UTF-8" standalone="no"?>
<svg width="11px" height="11px" viewBox="0 0 11 11" version="1.1" xmlns="http://www.w3.org/2000/svg" xmlns:xlink="http://www.w3.org/1999/xlink" xmlns:sketch="http://www.bohemiancoding.com/sketch/ns">
    <!-- Generator: Sketch 3.4.2 (15855) - http://www.bohemiancoding.com/sketch -->
    <title>Fill 322</title>
    <desc>Created with Sketch.</desc>
    <defs></defs>
    <g id="Page-1" stroke="none" stroke-width="1" fill="none" fill-rule="evenodd" sketch:type="MSPage">
        <g id="icons" sketch:type="MSLayerGroup" transform="translate(-238.000000, -1555.000000)" fill="#D0BFA8">
            <g id="Page-1" sketch:type="MSShapeGroup">
                <path d="M246.601095,1559.17667 L248.913,1559.17667 L248.913,1564.08143 C248.913,1564.8719 248.273714,1565.51 247.485381,1565.51 L240.340381,1565.51 C239.553714,1565.51 238.913,1564.8719 238.913,1564.08143 L238.913,1559.17667 L241.224667,1559.17667 C241.025143,1559.57905 240.913,1560.03143 240.913,1560.51 C240.913,1562.16714 242.256095,1563.51 243.913,1563.51 C245.569667,1563.51 246.913,1562.16714 246.913,1560.51 C246.913,1560.03143 246.800619,1559.57905 246.601095,1559.17667 L246.601095,1559.17667 Z M241.67681,1558.51 L238.913,1558.51 L238.913,1556.46476 C238.913,1555.93619 239.340143,1555.51 239.867286,1555.51 L247.958714,1555.51 C248.486333,1555.51 248.913,1555.93857 248.913,1556.46476 L248.913,1558.51 L246.148952,1558.51 C245.599667,1557.8981 244.801333,1557.51 243.913,1557.51 C243.024429,1557.51 242.226095,1557.8981 241.67681,1558.51 L241.67681,1558.51 Z M241.246333,1557.51 L241.579667,1557.51 L241.579667,1555.51 L241.246333,1555.51 L241.246333,1557.51 Z M240.579667,1557.51 L240.913,1557.51 L240.913,1555.51 L240.579667,1555.51 L240.579667,1557.51 Z M239.913,1557.51 L240.246333,1557.51 L240.246333,1555.51 L239.913,1555.51 L239.913,1557.51 Z M246.485143,1556.17667 C246.353238,1556.17667 246.246333,1556.28143 246.246333,1556.41714 L246.246333,1557.60524 C246.246333,1557.73619 246.350619,1557.84333 246.485143,1557.84333 L247.67419,1557.84333 C247.806095,1557.84333 247.913,1557.74095 247.913,1557.60524 L247.913,1556.41714 C247.913,1556.28381 247.808714,1556.17667 247.67419,1556.17667 L246.485143,1556.17667 L246.485143,1556.17667 Z M243.913,1562.84333 C245.201571,1562.84333 246.246333,1561.80048 246.246333,1560.51 C246.246333,1559.2219 245.201571,1558.17667 243.913,1558.17667 C242.62419,1558.17667 241.579667,1559.2219 241.579667,1560.51 C241.579667,1561.80048 242.62419,1562.84333 243.913,1562.84333 L243.913,1562.84333 Z" id="Fill-322"></path>
            </g>
        </g>
    </g>
</svg>