<?xml version="1.0" encoding="UTF-8" standalone="no"?>
<svg width="11px" height="9px" viewBox="0 0 11 9" version="1.1" xmlns="http://www.w3.org/2000/svg" xmlns:xlink="http://www.w3.org/1999/xlink" xmlns:sketch="http://www.bohemiancoding.com/sketch/ns">
    <!-- Generator: Sketch 3.4.2 (15855) - http://www.bohemiancoding.com/sketch -->
    <title>Fill 327</title>
    <desc>Created with Sketch.</desc>
    <defs></defs>
    <g id="Page-1" stroke="none" stroke-width="1" fill="none" fill-rule="evenodd" sketch:type="MSPage">
        <g id="icons" sketch:type="MSLayerGroup" transform="translate(-138.000000, -1657.000000)" fill="#6EC7E3">
            <g id="Page-1" sketch:type="MSShapeGroup">
                <path d="M140.243227,1659.15949 C141.823817,1659.96221 143.159557,1659.91549 143.159557,1659.91549 C143.159557,1659.91549 142.65308,1658.14229 144.218168,1657.35656 C145.783469,1656.57083 146.860555,1657.89595 146.860555,1657.89595 C146.860555,1657.89595 147.133437,1657.82162 147.336877,1657.74517 C147.540105,1657.67085 147.834647,1657.53494 147.834647,1657.53494 L147.352379,1658.40136 L148.095,1658.32067 C148.095,1658.32067 148.003473,1658.45658 147.70617,1658.73052 C147.408867,1659.00447 147.286548,1659.14462 147.286548,1659.14462 C147.286548,1659.14462 147.392728,1661.27883 146.273807,1662.92249 C145.154885,1664.56403 143.709143,1665.5515 141.60891,1665.75961 C139.508888,1665.9656 138.141082,1665.11192 138.141082,1665.11192 C138.141082,1665.11192 139.059536,1665.05883 139.644798,1664.83373 C140.230061,1664.60863 141.071853,1664.01614 141.071853,1664.01614 C141.071853,1664.01614 139.874996,1663.64664 139.445393,1663.23042 C139.01579,1662.81419 138.908336,1662.56785 138.908336,1662.56785 L140.089903,1662.55299 C140.089903,1662.55299 138.846964,1661.8883 138.494023,1661.3659 C138.141082,1660.84137 138.095,1660.33171 138.095,1660.33171 L139.003473,1660.70122 C139.003473,1660.70122 138.248536,1659.66915 138.141082,1658.86856 C138.033628,1658.06584 138.279116,1657.63475 138.279116,1657.63475 C138.279116,1657.63475 138.662849,1658.35889 140.243227,1659.15949" id="Fill-327"></path>
            </g>
        </g>
    </g>
</svg>